<svg xmlns="http://www.w3.org/2000/svg" width="62" height="57" viewBox="0 0 62 57">
  <metadata><?xpacket begin="﻿" id="W5M0MpCehiHzreSzNTczkc9d"?>
<x:xmpmeta xmlns:x="adobe:ns:meta/" x:xmptk="Adobe XMP Core 5.6-c138 79.159824, 2016/09/14-01:09:01        ">
   <rdf:RDF xmlns:rdf="http://www.w3.org/1999/02/22-rdf-syntax-ns#">
      <rdf:Description rdf:about=""/>
   </rdf:RDF>
</x:xmpmeta>
                                                                                                    
                                                                                                    
                                                                                                    
                                                                                                    
                                                                                                    
                                                                                                    
                                                                                                    
                                                                                                    
                                                                                                    
                                                                                                    
                                                                                                    
                                                                                                    
                                                                                                    
                                                                                                    
                                                                                                    
                                                                                                    
                                                                                                    
                                                                                                    
                                                                                                    
                                                                                                    
                           
<?xpacket end="w"?></metadata>
<defs>
    <style>
      .cls-1 {
        fill: #e62627;
        fill-rule: evenodd;
      }
    </style>
  </defs>
  <path id="Shape_18_copy_6" data-name="Shape 18 copy 6" class="cls-1" d="M1082.29,719.367a27.936,27.936,0,0,1,19.9-8.37h33.8v56.989h-33.8a27.937,27.937,0,0,1-19.9-8.371A28.6,28.6,0,0,1,1082.29,719.367Zm6.73,21.594h18.08l-7.86,7.39a1.478,1.478,0,0,0-.08,2.078,1.45,1.45,0,0,0,2.06.074l10.56-9.936a1.48,1.48,0,0,0,0-2.154l-10.56-9.935a1.45,1.45,0,0,0-2.06.075,1.488,1.488,0,0,0,.08,2.079l7.86,7.392h-18.08A1.469,1.469,0,0,0,1089.02,740.961Z" transform="translate(-1074 -711)"/>
</svg>
