<svg xmlns="http://www.w3.org/2000/svg" width="62" height="57" viewBox="0 0 62 57">
  <metadata><?xpacket begin="﻿" id="W5M0MpCehiHzreSzNTczkc9d"?>
<x:xmpmeta xmlns:x="adobe:ns:meta/" x:xmptk="Adobe XMP Core 5.6-c138 79.159824, 2016/09/14-01:09:01        ">
   <rdf:RDF xmlns:rdf="http://www.w3.org/1999/02/22-rdf-syntax-ns#">
      <rdf:Description rdf:about=""/>
   </rdf:RDF>
</x:xmpmeta>
                                                                                                    
                                                                                                    
                                                                                                    
                                                                                                    
                                                                                                    
                                                                                                    
                                                                                                    
                                                                                                    
                                                                                                    
                                                                                                    
                                                                                                    
                                                                                                    
                                                                                                    
                                                                                                    
                                                                                                    
                                                                                                    
                                                                                                    
                                                                                                    
                                                                                                    
                                                                                                    
                           
<?xpacket end="w"?></metadata>
<defs>
    <style>
      .cls-1 {
        fill: #e62627;
        fill-rule: evenodd;
      }
    </style>
  </defs>
  <path id="Shape_18_copy_6" data-name="Shape 18 copy 6" class="cls-1" d="M919.678,719.21a27.926,27.926,0,0,0-19.9-8.37H865.974v56.99h33.807a27.926,27.926,0,0,0,19.9-8.371A28.606,28.606,0,0,0,919.678,719.21Zm-6.73,21.595H894.873l7.859,7.389a1.48,1.48,0,0,1,.074,2.078,1.442,1.442,0,0,1-2.053.075l-10.565-9.937a1.482,1.482,0,0,1,0-2.153l10.565-9.934a1.442,1.442,0,0,1,2.053.074,1.482,1.482,0,0,1-.074,2.079l-7.864,7.391h18.08A1.469,1.469,0,0,1,912.948,740.805Z" transform="translate(-865.969 -710.844)"/>
</svg>
