<svg xmlns="http://www.w3.org/2000/svg" width="96.78" height="90.41" viewBox="0 0 96.78 90.41">
  <metadata><?xpacket begin="﻿" id="W5M0MpCehiHzreSzNTczkc9d"?>
<x:xmpmeta xmlns:x="adobe:ns:meta/" x:xmptk="Adobe XMP Core 5.6-c138 79.159824, 2016/09/14-01:09:01        ">
   <rdf:RDF xmlns:rdf="http://www.w3.org/1999/02/22-rdf-syntax-ns#">
      <rdf:Description rdf:about=""/>
   </rdf:RDF>
</x:xmpmeta>
                                                                                                    
                                                                                                    
                                                                                                    
                                                                                                    
                                                                                                    
                                                                                                    
                                                                                                    
                                                                                                    
                                                                                                    
                                                                                                    
                                                                                                    
                                                                                                    
                                                                                                    
                                                                                                    
                                                                                                    
                                                                                                    
                                                                                                    
                                                                                                    
                                                                                                    
                                                                                                    
                           
<?xpacket end="w"?></metadata>
<defs>
    <style>
      .cls-1 {
        fill: #e62627;
        fill-rule: evenodd;
      }
    </style>
  </defs>
  <path class="cls-1" d="M1105.65,2415.77h-11.82v-6.91a2.264,2.264,0,0,0-2.25-2.27h-6.64a2.266,2.266,0,0,0-2.26,2.27v6.91h-17.59v-6.91a2.266,2.266,0,0,0-2.26-2.27h-6.63a2.266,2.266,0,0,0-2.26,2.27v6.91h-17.59v-6.91a2.266,2.266,0,0,0-2.26-2.27h-6.64a2.273,2.273,0,0,0-2.26,2.27v6.91h-11.81a2.266,2.266,0,0,0-2.26,2.27v76.67a2.268,2.268,0,0,0,2.26,2.28h92.27a2.268,2.268,0,0,0,2.26-2.28v-76.67A2.266,2.266,0,0,0,1105.65,2415.77Zm-57.62,23.37v9.92h-13.94v-9.92h13.94Zm18.45,0v9.92h-13.93v-9.92h13.93Zm18.46,0v9.92H1071v-9.92h13.94Zm18.45,0v9.92h-13.94v-9.92h13.94Zm0,24.38h-13.94v-9.92h13.94v9.92Zm-87.75-9.92h13.94v9.92h-13.94v-9.92Zm27.77,22.51a0.16,0.16,0,0,1-.25.18l-1.98-1.45a0.165,0.165,0,0,0-.19,0l-1.98,1.45a0.156,0.156,0,0,1-.24-0.18l0.75-2.34a0.157,0.157,0,0,0-.06-0.18l-1.98-1.45a0.162,0.162,0,0,1,.1-0.29h2.45a0.159,0.159,0,0,0,.15-0.12l0.76-2.34a0.156,0.156,0,0,1,.3,0l0.76,2.34a0.159,0.159,0,0,0,.15.12h2.45a0.16,0.16,0,0,1,.09.29l-1.98,1.45a0.153,0.153,0,0,0-.05.18Zm4.62-12.59h-13.94v-9.92h13.94v9.92Zm4.52-9.92h13.93v9.92h-13.93v-9.92Zm18.45,0h13.94v9.92H1071v-9.92Zm-41.42-4.54h-13.94v-9.92h13.94v9.92Zm-13.94,19h13.94v9.92h-13.94v-9.92Zm36.91,0h13.93v9.92h-13.93v-9.92Zm18.45,0h13.94v9.92H1071v-9.92Zm18.45,0h13.94v9.92h-13.94v-9.92Zm-2.25-52.29v-4.64h2.12v12.83h-2.12v-8.19Zm-28.75,0v-4.64h2.13v12.83h-2.13v-8.19Zm-28.74,0v-4.64h2.12v12.83h-2.12v-8.19Zm-14.07,4.55h9.55v5.91a2.275,2.275,0,0,0,2.26,2.28h6.64a2.268,2.268,0,0,0,2.26-2.28v-5.91h17.59v5.91a2.268,2.268,0,0,0,2.26,2.28h6.63a2.268,2.268,0,0,0,2.26-2.28v-5.91h17.59v5.91a2.268,2.268,0,0,0,2.26,2.28h6.64a2.266,2.266,0,0,0,2.25-2.28v-5.91h9.56v14.28h-87.75v-14.28Zm0,62.21h13.94v9.91h-13.94v-9.91Zm18.45,0h13.94v9.91h-13.94v-9.91Zm18.46,0h13.93v9.91h-13.93v-9.91Zm18.45,0h13.94v9.91H1071v-9.91Zm32.39,9.91h-13.94v-9.91h13.94v9.91Z" transform="translate(-1011.13 -2406.59)"/>
</svg>
