<?xml version="1.0" encoding="utf-8"?>
<!-- Generator: Adobe Illustrator 16.0.0, SVG Export Plug-In . SVG Version: 6.00 Build 0)  -->
<!DOCTYPE svg PUBLIC "-//W3C//DTD SVG 1.1//EN" "http://www.w3.org/Graphics/SVG/1.1/DTD/svg11.dtd">
<svg version="1.1" id="Shape_19_1_" xmlns="http://www.w3.org/2000/svg" xmlns:xlink="http://www.w3.org/1999/xlink" x="0px"
	 y="0px" width="90px" height="91px" viewBox="0 0 90 91" enable-background="new 0 0 90 91" xml:space="preserve">
<g id="Shape_19">
	<g>
		<path fill-rule="evenodd" clip-rule="evenodd" fill="#E62627" d="M44.995,0.979c-24.814,0-45.003,20.188-45.003,45.003
			s20.188,45.003,45.003,45.003c24.813,0,45.003-20.188,45.003-45.003S69.809,0.979,44.995,0.979z M5.646,45.981
			c0-21.697,17.651-39.35,39.349-39.35c9.833,0,18.828,3.634,25.732,9.619L57.695,29.283H22.777c-1.844,0-3.34,1.494-3.34,3.34
			v6.679h28.24l-6.68,6.68H19.438v13.359c0,1.845,1.496,3.34,3.34,3.34h1.521l-9.034,9.034C9.28,64.81,5.646,55.814,5.646,45.981z
			 M44.995,85.331c-9.833,0-18.828-3.634-25.733-9.619l13.032-13.031h37.239c1.845,0,3.34-1.495,3.34-3.34V45.981h-23.88l6.68-6.68
			h17.2v-6.679c0-1.846-1.495-3.34-3.34-3.34h-3.842l9.034-9.034c5.984,6.905,9.618,15.899,9.618,25.732
			C84.344,67.679,66.691,85.331,44.995,85.331z"/>
	</g>
</g>
</svg>
