<svg xmlns="http://www.w3.org/2000/svg" width="72.781" height="85.63" viewBox="0 0 72.781 85.63">
  <metadata><?xpacket begin="﻿" id="W5M0MpCehiHzreSzNTczkc9d"?>
<x:xmpmeta xmlns:x="adobe:ns:meta/" x:xmptk="Adobe XMP Core 5.6-c138 79.159824, 2016/09/14-01:09:01        ">
   <rdf:RDF xmlns:rdf="http://www.w3.org/1999/02/22-rdf-syntax-ns#">
      <rdf:Description rdf:about=""/>
   </rdf:RDF>
</x:xmpmeta>
                                                                                                    
                                                                                                    
                                                                                                    
                                                                                                    
                                                                                                    
                                                                                                    
                                                                                                    
                                                                                                    
                                                                                                    
                                                                                                    
                                                                                                    
                                                                                                    
                                                                                                    
                                                                                                    
                                                                                                    
                                                                                                    
                                                                                                    
                                                                                                    
                                                                                                    
                                                                                                    
                           
<?xpacket end="w"?></metadata>
<defs>
    <style>
      .cls-1 {
        fill: #e62627;
        fill-rule: evenodd;
      }
    </style>
  </defs>
  <path class="cls-1" d="M533.967,2409.57H465.694a2.259,2.259,0,0,0-2.259,2.26v8.67a2.249,2.249,0,0,0,.42,1.31l17.585,24.67a27.829,27.829,0,1,0,36.781,0l17.585-24.67a2.242,2.242,0,0,0,.421-1.31v-8.67A2.259,2.259,0,0,0,533.967,2409.57Zm-10.826,57.77a23.31,23.31,0,1,1-39.064-17.16,22.446,22.446,0,0,1,1.739-1.45c0.6-.46,1.224-0.88,1.867-1.28a23.307,23.307,0,0,1,5.449-2.43,20.818,20.818,0,0,1,2.362-.58,21.2,21.2,0,0,1,2.534-.33c0.6-.05,1.2-0.08,1.8-0.08s1.207,0.03,1.8.08a21.171,21.171,0,0,1,2.534.33,20.835,20.835,0,0,1,2.363.58,23.3,23.3,0,0,1,5.448,2.43c0.644,0.4,1.266.82,1.867,1.28a22.274,22.274,0,0,1,1.74,1.45A23.247,23.247,0,0,1,523.141,2467.34Zm-53.095-44.63-2.092-2.93v-5.69h3.219l4.52,6.36,1.6,2.26,1.6,2.26,11.493,16.19a27.692,27.692,0,0,0-5.336,2.61l-13.4-18.8Zm52.9-8.62h8.761v5.17a1.19,1.19,0,0,1-1.192,1.19H481.235l-4.521-6.36h46.233Zm-7.729,10.88L504.6,2439.93a27.285,27.285,0,0,0-9.538,0l-10.619-14.96h30.775Zm-5.951,16.19,11.493-16.19h7.245l-13.4,18.8A27.72,27.72,0,0,0,509.267,2441.16Zm-4.484,20.2a1.215,1.215,0,0,1-1.155-.84l-0.89-2.74-0.38-1.17-0.734-2.26-0.077-.24-0.464-1.42-0.225-.7-0.033-.1a1.192,1.192,0,0,0-1.378-.8,1.161,1.161,0,0,0-.932.8l-0.157.49-0.147.45-0.433,1.33-0.085.26-0.649,2-0.542,1.67-0.79,2.43a1.215,1.215,0,0,1-1.155.84h-9.069a1.216,1.216,0,0,0-.714,2.2l7.337,5.33a1.217,1.217,0,0,1,.441,1.36l-2.8,8.62a1.215,1.215,0,0,0,1.869,1.36l7.337-5.33a1.213,1.213,0,0,1,1.428,0l7.337,5.33a1.215,1.215,0,0,0,1.869-1.36l-2.8-8.62a1.217,1.217,0,0,1,.441-1.36l7.337-5.33a1.216,1.216,0,0,0-.714-2.2h-9.069Z" transform="translate(-463.438 -2409.56)"/>
</svg>
