<?xml version="1.0" encoding="utf-8"?>
<!-- Generator: Adobe Illustrator 21.1.0, SVG Export Plug-In . SVG Version: 6.00 Build 0)  -->
<svg version="1.1" id="LOGO" xmlns="http://www.w3.org/2000/svg" xmlns:xlink="http://www.w3.org/1999/xlink" x="0px" y="0px"
	 viewBox="0 0 316.7 398.5" style="enable-background:new 0 0 316.7 398.5;" xml:space="preserve">
<style type="text/css">
	.st0{fill:#e62627;}
	.st1{fill:#FFFFFF;}
</style>
<path class="st0" d="M214.4,181.9c-54,0-21.2,65.5-89.3,65.5c-15.5,0-33.3-4.5-44.4-9.9c-7.9-3.7-12.1-0.2-6.2,13.3
	c14.1,32.2,55.1,48,88.1,48c44.9,0,85.6-37,85.6-78.8C248.3,194.1,231.3,181.9,214.4,181.9L214.4,181.9z M149.9,0
	C81.9,0,26.8,51.4,26.8,112.4c0,50,40.1,109.3,100.3,109.3c9,0,9.9-6.2,5.7-13c-17-26.8-19.8-65.3,12.1-93.5
	c2.8,29.1,23.9,48.6,59,48.6c32.2,0,61-27.7,61-70.1C264.9,35.3,212.1,0,149.9,0z"/>
<path class="st1" d="M71.7,357.6v-34.2H0v34.2h15.2v-25.6H57v25.6H71.7z M159.6,323.4h-18.5l-16.9,14.8l-20.8-14.8H84.9l31.1,21.4
	l-15.4,12.9h17.7L159.6,323.4z M236.9,332.1v-8.7h-69.7v8.7h27.4v25.6h15v-25.6H236.9z M268.3,330.5v-7.1h-15.2v34.2h40.5
	c13.7,0,23-2.8,23-13.4v-0.8c0-10.2-9.4-12.9-23-12.9H268.3z M301,344.2c0,3.1-1.5,4.2-9.1,4.2h-23.6v-9.4h23.6
	c7.5,0,9.1,1.2,9.1,4.3V344.2z"/>
<g>
	<path class="st1" d="M6.5,380.3h6.7c2.3,0,10.5,0.2,10.5,9.1c0,5.7-4.1,8.3-10.5,8.3l-13.2,0V370h21.5v5.4h-15V380.3z M6.5,392.3
		h5.3c2.6,0,4.9-0.5,4.9-3.1c0-3.3-3.2-3.5-4.7-3.5l-5.4,0V392.3z"/>
	<path class="st1" d="M46.3,383.8c0-6.4,1.8-14.6,12.7-14.6c9.5,0,14,6.2,14,14.6c0,8.4-4.5,14.6-14,14.6
		C48.1,398.5,46.3,390.3,46.3,383.8z M66,383.8c0-2.5-0.3-9.3-7-9.3c-3.6,0-6.9,1.9-6.9,9.3c0,7.2,3.3,9.3,6.9,9.3
		C65.7,393.1,66,386.2,66,383.8z"/>
	<path class="st1" d="M113.6,370h7.7l-11.1,12.7l11.7,15h-8l-9.8-13.5h-0.1v13.5h-6.5l0-27.7h6.5v11.6h0.1L113.6,370z"/>
	<path class="st1" d="M171.2,387.9c-0.4,4.2-2.8,10.6-12.6,10.6c-7.1,0-13.6-3.2-13.6-14.1c0-14.6,10.6-15.1,13.3-15.1
		c9.8,0,12.3,6.1,12.5,10.2h-6.4c-0.6-4.6-4.3-4.8-5.8-4.8c-1.5,0-6.6,0.3-6.6,9.5c0,5.2,2.4,9,6.8,9c4.3,0,5.5-3.1,5.8-5.2H171.2z"
		/>
	<path class="st1" d="M216.1,381l0,5.1h-13.5v6.2h15.7v5.4H196l0-27.7h21.9v5.4h-15.3v5.6H216.1z"/>
	<path class="st1" d="M257.1,370c5.6,0,10.4,2.1,10.4,8.9c0,8.7-7.2,9.2-10.6,9.2h-6.2v9.5h-6.5V370H257.1z M250.7,382.8h5.1
		c3.1,0,4.7-1.1,4.7-3.8c0-3.8-3.2-3.6-4.7-3.6h-5.1L250.7,382.8z"/>
	<path class="st1" d="M302.9,370l10.4,27.7l-6.9,0l-1.8-5.2h-10l-1.7,5.2h-6.9l10.4-27.7H302.9z M303.1,387.8l-3.6-10.6l-3.6,10.6
		H303.1z"/>
</g>
</svg>
